<?xml version="1.0" encoding="utf-8"?>
<!-- Generator: Adobe Illustrator 27.0.1, SVG Export Plug-In . SVG Version: 6.00 Build 0)  -->
<svg version="1.1" id="Layer_1" xmlns="http://www.w3.org/2000/svg" xmlns:xlink="http://www.w3.org/1999/xlink" x="0px" y="0px"
	 viewBox="0 0 32 32" style="enable-background:new 0 0 32 32;" xml:space="preserve">
<style type="text/css">
	.st0{fill:#E64D3C;}
</style>
<path class="st0" d="M9.1,29.9H1.4v-0.2h2.2L17.4,1.4l-0.1,0h0.3l12.7,25.8c0.3,0.6,0.3,1.1,0.2,1.5c-0.1,0.4-0.4,0.8-0.7,1.1
	c-0.4,0.3-0.8,0.5-1.4,0.7c-0.6,0.2-1.2,0.2-1.8,0.3c-1.3,0-2.6-0.2-4-0.8c-1.3-0.6-2.3-1.5-2.9-2.6l-6-12l-7,14.5h2.4L9.1,29.9
	L9.1,29.9L9.1,29.9z M19.6,26.2c0.4,0.7,0.9,1.2,1.6,1.7c0.7,0.4,1.5,0.7,2.3,0.9c0.8,0.2,1.7,0.3,2.5,0.2c0.8-0.1,1.6-0.2,2.2-0.5
	c0.6-0.3,1.1-0.6,1.3-1.1c0.3-0.5,0.2-1-0.1-1.7L19,4.5l-5.1,10.4L19.6,26.2L19.6,26.2z"/>
</svg>
