<?xml version="1.0" encoding="UTF-8"?>
<svg id="Layer_2" data-name="Layer 2" xmlns="http://www.w3.org/2000/svg" viewBox="0 0 766.24 206.2">
  <defs>
    <style>
      .cls-1 {
        fill: #ecf0f1;
      }
    </style>
  </defs>
  <g id="Layer_1-2" data-name="Layer 1">
    <g>
      <path class="cls-1" d="M121.35,5.27h41.75v1.3h-20.09V200.99h-1.3L21.66,25.88V199.68h20.09v1.3H0v-1.3H20.35V6.57H0v-1.3H26.62l115.08,167.8V6.57h-20.35v-1.3Z"/>
      <path class="cls-1" d="M202.24,200.94h-41.75v-1.3h12S247.39,5.48,247.39,5.48l-.26-.26h1.56s68.63,176.93,68.63,176.93c1.39,3.83,1.79,7.18,1.17,10.05-.61,2.87-1.91,5.35-3.91,7.44-2,2.09-4.57,3.65-7.7,4.7-3.13,1.04-6.43,1.65-9.92,1.83-7.13,.35-14.26-1.44-21.4-5.35-7.13-3.91-12.35-9.96-15.66-18.14l-32.36-82.72-38.1,99.69h12.79v1.3Zm56.63-24.79c1.92,4.7,4.79,8.53,8.61,11.48,3.83,2.96,8,5.09,12.53,6.39,4.53,1.3,9.09,1.74,13.7,1.3,4.61-.43,8.57-1.57,11.87-3.39,3.31-1.83,5.7-4.35,7.18-7.57,1.48-3.22,1.35-7.09-.39-11.61L255.74,26.88l-27.4,71.24,30.53,78.03Z"/>
      <path class="cls-1" d="M313.68,6.57h-12.79l38.1,99.69,32.36-82.72c1.57-4.18,3.74-7.74,6.52-10.7,2.78-2.96,5.83-5.44,9.13-7.44,3.3-2,6.83-3.43,10.57-4.31,3.74-.87,7.35-1.21,10.83-1.04,3.48,.18,6.79,.78,9.92,1.83,3.13,1.04,5.7,2.61,7.7,4.7,2,2.09,3.3,4.57,3.91,7.44,.61,2.87,.22,6.22-1.17,10.05l-68.63,176.93h-1.56l.26-.26L283.93,6.57h-12v-1.3h41.75v1.3Zm53.5,172.75l56.63-145.87c1.74-4.52,1.91-8.39,.52-11.61-1.39-3.22-3.78-5.74-7.18-7.57-3.39-1.83-7.35-2.96-11.87-3.39-4.53-.43-9.09,0-13.7,1.3-4.61,1.3-8.83,3.39-12.66,6.26-3.83,2.87-6.7,6.74-8.61,11.61l-30.53,78.03,27.4,71.24Z"/>
      <path class="cls-1" d="M510.33,199.63h12.79l-38.1-99.69-32.36,82.72c-3.31,8.18-8.53,14.22-15.66,18.14-7.14,3.91-14.27,5.7-21.4,5.35-3.48-.18-6.79-.78-9.92-1.83-3.13-1.04-5.7-2.61-7.7-4.7-2-2.09-3.31-4.57-3.91-7.44-.61-2.87-.22-6.22,1.17-10.05L463.88,5.22h1.57l-.26,.26,74.9,194.15h12v1.3h-41.75v-1.3Zm-26.1-101.51l-27.4-71.24-56.63,145.87c-1.74,4.53-1.87,8.4-.39,11.61,1.48,3.22,3.87,5.74,7.18,7.57,3.3,1.83,7.26,2.96,11.87,3.39,4.61,.44,9.17,0,13.7-1.3,4.52-1.3,8.7-3.43,12.53-6.39,3.82-2.96,6.69-6.79,8.61-11.48l30.53-78.03Z"/>
      <path class="cls-1" d="M689.63,6.57h-66.02c-7.66,0-13.83,1.26-18.53,3.78-4.7,2.52-8.57,5.96-11.61,10.31-3.05,4.35-5.44,9.35-7.18,15.01-1.74,5.66-3.39,11.61-4.96,17.88h-1.3l5.22-48.28h123.43l-120.04,194.41h76.98c7.65,0,13.83-1.26,18.53-3.78,4.7-2.52,8.57-5.96,11.61-10.31,3.04-4.35,5.43-9.35,7.18-15.01,1.74-5.65,3.39-11.61,4.96-17.88h1.3l-5.22,48.28h-134.39L689.63,6.57Z"/>
      <path class="cls-1" d="M724.49,199.68h13.05V6.57h-13.05v-1.3h41.75v1.3h-13.05V199.68h13.05v1.3h-41.75v-1.3Z"/>
    </g>
  </g>
</svg>